<mxfile host="app.diagrams.net" modified="2023-06-02T17:47:49.435Z" agent="Mozilla/5.0 (Macintosh; Intel Mac OS X 10_15_7) AppleWebKit/605.1.15 (KHTML, like Gecko) Version/16.5 Safari/605.1.15" etag="Yw0HGhwVl7b9IdAzeW_a" version="21.3.7" type="github">
  <diagram name="Page-1" id="EEkJO9nk0LXg_6cahS56">
    <mxGraphModel dx="1434" dy="779" grid="1" gridSize="10" guides="1" tooltips="1" connect="1" arrows="1" fold="1" page="1" pageScale="1" pageWidth="850" pageHeight="1100" math="0" shadow="0">
      <root>
        <mxCell id="0" />
        <mxCell id="1" parent="0" />
        <mxCell id="xOveleOgOcekd0gXvwDB-1" value="User&lt;br&gt;" style="swimlane;childLayout=stackLayout;horizontal=1;startSize=50;horizontalStack=0;rounded=1;fontSize=14;fontStyle=0;strokeWidth=2;resizeParent=0;resizeLast=1;shadow=0;dashed=0;align=center;arcSize=4;whiteSpace=wrap;html=1;" vertex="1" parent="1">
          <mxGeometry x="60" y="170" width="160" height="120" as="geometry" />
        </mxCell>
        <mxCell id="xOveleOgOcekd0gXvwDB-2" value="firstName&lt;br&gt;lastName&lt;br&gt;email&lt;br&gt;password" style="align=left;strokeColor=none;fillColor=none;spacingLeft=4;fontSize=12;verticalAlign=top;resizable=0;rotatable=0;part=1;html=1;" vertex="1" parent="xOveleOgOcekd0gXvwDB-1">
          <mxGeometry y="50" width="160" height="70" as="geometry" />
        </mxCell>
        <mxCell id="xOveleOgOcekd0gXvwDB-3" value="Role" style="swimlane;childLayout=stackLayout;horizontal=1;startSize=50;horizontalStack=0;rounded=1;fontSize=14;fontStyle=0;strokeWidth=2;resizeParent=0;resizeLast=1;shadow=0;dashed=0;align=center;arcSize=4;whiteSpace=wrap;html=1;" vertex="1" parent="1">
          <mxGeometry x="450" y="90" width="160" height="120" as="geometry" />
        </mxCell>
        <mxCell id="xOveleOgOcekd0gXvwDB-4" value="name&lt;br&gt;permissions" style="align=left;strokeColor=none;fillColor=none;spacingLeft=4;fontSize=12;verticalAlign=top;resizable=0;rotatable=0;part=1;html=1;" vertex="1" parent="xOveleOgOcekd0gXvwDB-3">
          <mxGeometry y="50" width="160" height="70" as="geometry" />
        </mxCell>
        <mxCell id="xOveleOgOcekd0gXvwDB-6" style="edgeStyle=orthogonalEdgeStyle;rounded=0;orthogonalLoop=1;jettySize=auto;html=1;exitX=0.75;exitY=0;exitDx=0;exitDy=0;entryX=0.8;entryY=-0.029;entryDx=0;entryDy=0;entryPerimeter=0;" edge="1" parent="xOveleOgOcekd0gXvwDB-3" source="xOveleOgOcekd0gXvwDB-4" target="xOveleOgOcekd0gXvwDB-4">
          <mxGeometry relative="1" as="geometry" />
        </mxCell>
        <mxCell id="xOveleOgOcekd0gXvwDB-5" value="" style="edgeStyle=entityRelationEdgeStyle;fontSize=12;html=1;endArrow=ERmandOne;startArrow=ERmandOne;rounded=0;exitX=0.956;exitY=-0.043;exitDx=0;exitDy=0;exitPerimeter=0;entryX=0.063;entryY=0;entryDx=0;entryDy=0;entryPerimeter=0;" edge="1" parent="1" source="xOveleOgOcekd0gXvwDB-2" target="xOveleOgOcekd0gXvwDB-4">
          <mxGeometry width="100" height="100" relative="1" as="geometry">
            <mxPoint x="325" y="240" as="sourcePoint" />
            <mxPoint x="425" y="140" as="targetPoint" />
          </mxGeometry>
        </mxCell>
        <mxCell id="xOveleOgOcekd0gXvwDB-7" value="has&lt;br&gt;" style="edgeLabel;html=1;align=center;verticalAlign=middle;resizable=0;points=[];" vertex="1" connectable="0" parent="xOveleOgOcekd0gXvwDB-5">
          <mxGeometry x="0.0373" y="4" relative="1" as="geometry">
            <mxPoint as="offset" />
          </mxGeometry>
        </mxCell>
      </root>
    </mxGraphModel>
  </diagram>
</mxfile>
